<?xml version="1.0" encoding="utf-8"?>
<!-- Generator: Adobe Illustrator 14.0.0, SVG Export Plug-In . SVG Version: 6.00 Build 43363)  -->
<!DOCTYPE svg PUBLIC "-//W3C//DTD SVG 1.1//EN" "http://www.w3.org/Graphics/SVG/1.1/DTD/svg11.dtd">
<svg version="1.1" id="Splash" xmlns="http://www.w3.org/2000/svg" xmlns:xlink="http://www.w3.org/1999/xlink" x="0px" y="0px"
	 width="90px" height="21px" viewBox="0 0 90 21" enable-background="new 0 0 90 21" xml:space="preserve">
<g>
	<g>
		<path fill="#1041BA" d="M26,0c-2.2,0-4,1.8-4,4v1.956c0,2.2,1.8,4,4,4h0.17c2.2,0,4,1.8,4,4V17c0,2.2,1.8,4,4,4H86
			c2.2,0,4-1.8,4-4V4c0-2.2-1.8-4-4-4H26z"/>
	</g>
	<g>
		<path fill="#1C6AD2" d="M46.317,12.814c-1.601-1.509-1.601-3.979,0-5.487l4.862-4.583C52.78,1.235,52.29,0,50.089,0h-34.95
			c-2.2,0-5.31,1.235-6.911,2.744L2.911,7.756c-1.601,1.509-1.601,3.979,0,5.487l5.318,5.013C9.829,19.765,12.939,21,15.139,21H51
			c2.2,0,2.69-1.235,1.089-2.744L46.317,12.814z"/>
	</g>
	<text transform="matrix(1 0 0 1 15.0518 13.6089)" fill="#FFFFFF" font-family="serif" font-size="10.0294">Log in</text>
	<text transform="matrix(1 0 0 1 57.1113 13.6089)" fill="#FFFFFF" font-family="'Myriad Pro-Regular'" font-size="8.7102">Sign up</text>
</g>
</svg>
