<?xml version="1.0" encoding="utf-8"?>
<!-- Generator: Adobe Illustrator 14.0.0, SVG Export Plug-In . SVG Version: 6.00 Build 43363)  -->
<!DOCTYPE svg PUBLIC "-//W3C//DTD SVG 1.1//EN" "http://www.w3.org/Graphics/SVG/1.1/DTD/svg11.dtd">
<svg version="1.1" id="Main_Theme" xmlns="http://www.w3.org/2000/svg" xmlns:xlink="http://www.w3.org/1999/xlink" x="0px" y="0px"
	 width="204px" height="28px" viewBox="0 0 204 28" enable-background="new 0 0 204 28" xml:space="preserve">
<g>
	<path display="inline" fill="#BACK" d="M204,7c0-3.866-3.134-7-7-7H27v9v5v14h177V9h-0.294C203.896,8.366,204,7.695,204,7z
		 M181.598,23.271l-2.62-2.895l5.969-5.422l2.62,2.896L181.598,23.271z M197.84,13.435c-0.951,2.75-3.527,4.477-6.282,4.477
		c-0.722,0-1.455-0.118-2.175-0.367c-3.471-1.201-5.311-4.987-4.109-8.458c0.952-2.75,3.528-4.477,6.283-4.477
		c0.722,0,1.455,0.118,2.175,0.368C197.201,6.178,199.041,9.965,197.84,13.435z"/>
	<path display="inline" fill="#BACK" d="M193.142,6.681c-0.515-0.179-1.048-0.269-1.585-0.269c-2.064,0-3.904,1.312-4.58,3.264
		c-0.424,1.224-0.345,2.539,0.221,3.703c0.565,1.165,1.551,2.039,2.774,2.462c0.515,0.178,1.048,0.268,1.586,0.268
		c2.063,0,3.904-1.312,4.58-3.263c0.423-1.224,0.345-2.539-0.222-3.703C195.351,7.978,194.365,7.104,193.142,6.681z"/>
	<path display="inline" fill="#BACK" d="M27,14V9V0C13,0,13,28,0,28h27V14z"/>
	<g display="inline">
		<polygon fill="#FORE" points="178.978,20.376 181.598,23.271 187.566,17.85 184.946,14.955 		"/>
		<path fill="#FORE" d="M193.731,4.978c-0.72-0.25-1.453-0.368-2.175-0.368c-2.755,0-5.331,1.726-6.283,4.477
			c-1.201,3.47,0.639,7.257,4.109,8.458c0.72,0.249,1.453,0.367,2.175,0.367c2.755,0,5.331-1.726,6.282-4.477
			C199.041,9.965,197.201,6.178,193.731,4.978z M196.138,12.846c-0.676,1.952-2.517,3.263-4.58,3.263
			c-0.538,0-1.071-0.09-1.586-0.268c-1.224-0.423-2.209-1.298-2.774-2.462c-0.565-1.164-0.645-2.479-0.221-3.703
			c0.676-1.952,2.516-3.264,4.58-3.264c0.537,0,1.07,0.09,1.585,0.269c1.224,0.423,2.209,1.297,2.774,2.462
			C196.482,10.307,196.561,11.622,196.138,12.846z"/>
	</g>
</g>
</svg>
