<?xml version="1.0" encoding="utf-8"?>
<!-- Generator: Adobe Illustrator 14.0.0, SVG Export Plug-In . SVG Version: 6.00 Build 43363)  -->
<!DOCTYPE svg PUBLIC "-//W3C//DTD SVG 1.1//EN" "http://www.w3.org/Graphics/SVG/1.1/DTD/svg11.dtd">
<svg version="1.1" id="Main_Theme" xmlns="http://www.w3.org/2000/svg" xmlns:xlink="http://www.w3.org/1999/xlink" x="0px" y="0px"
	 width="70px" height="25px" viewBox="0 35 70 25" enable-background="new 0 0 70 60" xml:space="preserve">
<rect fill="#FORE" width="70" height="60"/>
<g>
	<path fill="#ACCENT" d="M0,8.623v47.334C0,58.181,1.807,60,4.015,60h61.971C68.193,60,70,58.181,70,55.958V8.623H0z"/>
	<g>
		<path fill="#BACK" d="M4,0C1.8,0,0,1.8,0,4v8.593c0,2.2,1.8,4,4,4h5.283c2.2,0,4,1.8,4,4V31c0,2.2,1.8,4,4,4H66c2.2,0,4-1.8,4-4
			V4c0-2.2-1.8-4-4-4H4z"/>
	</g>
	<g>
	  <path fill="#FFFFFF" d="M23.205,12.191h1.453V24h-1.453V12.191z"/>
	  <path fill="#FFFFFF" d="M34.333,19.909c0,2.977-2.063,4.274-3.979,4.274c-2.146,0-3.831-1.597-3.831-4.142
				  c0-2.678,1.767-4.258,3.963-4.258C32.781,15.784,34.333,17.463,34.333,19.909z M28.01,19.992c0,1.763,0.99,3.094,2.41,3.094
				  c1.387,0,2.428-1.314,2.428-3.127c0-1.364-0.678-3.077-2.395-3.077C28.753,16.881,28.01,18.478,28.01,19.992z"/>
	  <path fill="#FFFFFF" d="M43.003,22.819c0,1.863-0.38,2.977-1.139,3.692c-0.793,0.715-1.915,0.965-2.923,0.965
				  c-0.957,0-2.014-0.233-2.658-0.665l0.363-1.131c0.528,0.35,1.354,0.649,2.345,0.649c1.486,0,2.575-0.782,2.575-2.828V22.62h-0.032
				  c-0.43,0.749-1.305,1.347-2.543,1.347c-1.981,0-3.401-1.696-3.401-3.925c0-2.728,1.767-4.258,3.616-4.258
				  c1.387,0,2.13,0.715,2.493,1.38h0.033l0.049-1.214h1.288c-0.05,0.565-0.066,1.23-0.066,2.195V22.819z M41.551,19.127
				  c0-0.25-0.017-0.466-0.083-0.649c-0.264-0.865-0.958-1.563-2.03-1.563c-1.388,0-2.378,1.181-2.378,3.044
				  c0,1.58,0.81,2.894,2.361,2.894c0.908,0,1.717-0.565,2.014-1.497c0.083-0.25,0.116-0.532,0.116-0.782V19.127z"/>
	  <path fill="#FFFFFF" d="M50.518,13.688c0,0.499-0.347,0.898-0.925,0.898c-0.528,0-0.875-0.399-0.875-0.898
				  s0.363-0.915,0.908-0.915C50.154,12.773,50.518,13.172,50.518,13.688z M48.899,24v-8.05h1.453V24H48.899z"/>
	  <path fill="#FFFFFF" d="M52.763,18.129c0-0.848-0.017-1.514-0.065-2.179h1.287l0.083,1.331h0.033
				  c0.396-0.749,1.32-1.497,2.642-1.497c1.105,0,2.823,0.666,2.823,3.426V24h-1.453v-4.64c0-1.297-0.479-2.378-1.85-2.378
				  c-0.94,0-1.684,0.682-1.948,1.497c-0.065,0.183-0.099,0.433-0.099,0.682V24h-1.453V18.129z"/>
	  </g>
	<g>
	  <path fill="#FFFFFF" d="M14.194,50.715c0.388,0.231,1.047,0.491,1.678,0.491c0.904,0,1.334-0.447,1.334-1.039
				  c0-0.606-0.358-0.924-1.276-1.271c-1.262-0.462-1.851-1.14-1.851-1.978c0-1.126,0.918-2.05,2.396-2.05
				  c0.703,0,1.32,0.188,1.692,0.433l-0.301,0.924c-0.272-0.173-0.774-0.418-1.42-0.418c-0.746,0-1.147,0.433-1.147,0.953
				  c0,0.577,0.401,0.837,1.305,1.198c1.191,0.448,1.822,1.054,1.822,2.093c0,1.241-0.961,2.107-2.582,2.107
				  c-0.76,0-1.463-0.202-1.951-0.491L14.194,50.715z"/>
	  <path fill="#FFFFFF" d="M21.451,43.05c0,0.433-0.302,0.78-0.804,0.78c-0.459,0-0.76-0.347-0.76-0.78s0.315-0.794,0.788-0.794
				  C21.135,42.256,21.451,42.603,21.451,43.05z M20.045,52v-6.986h1.263V52H20.045z"/>
	  <path fill="#FFFFFF" d="M29.34,50.975c0,1.617-0.33,2.584-0.99,3.205c-0.688,0.621-1.663,0.837-2.538,0.837
				  c-0.832,0-1.75-0.202-2.31-0.578l0.315-0.981c0.459,0.303,1.177,0.563,2.037,0.563c1.291,0,2.237-0.679,2.237-2.454v-0.765h-0.028
				  c-0.373,0.65-1.134,1.169-2.209,1.169c-1.722,0-2.955-1.472-2.955-3.407c0-2.367,1.535-3.695,3.142-3.695
				  c1.204,0,1.85,0.621,2.166,1.198h0.028l0.043-1.054h1.119c-0.044,0.491-0.058,1.068-0.058,1.905V50.975z M28.077,47.771
				  c0-0.216-0.014-0.404-0.071-0.563c-0.229-0.75-0.832-1.357-1.765-1.357c-1.204,0-2.065,1.025-2.065,2.642
				  c0,1.372,0.703,2.512,2.052,2.512c0.788,0,1.491-0.491,1.749-1.299c0.072-0.217,0.101-0.462,0.101-0.679V47.771z"/>
	  <path fill="#FFFFFF" d="M31.332,46.904c0-0.736-0.014-1.313-0.058-1.891h1.119l0.071,1.155h0.029
				  c0.344-0.65,1.147-1.299,2.295-1.299c0.961,0,2.452,0.578,2.452,2.974V52h-1.262v-4.027c0-1.126-0.416-2.064-1.606-2.064
				  c-0.817,0-1.463,0.592-1.692,1.299c-0.058,0.159-0.086,0.375-0.086,0.592V52h-1.263V46.904z"/>
	  <path fill="#FFFFFF" d="M48.141,50.08c0,0.736,0.014,1.372,0.057,1.92h-1.118l-0.072-1.14h-0.028
				  c-0.315,0.563-1.062,1.299-2.295,1.299c-1.09,0-2.396-0.621-2.396-3.06v-4.085h1.263v3.854c0,1.328,0.416,2.237,1.549,2.237
				  c0.846,0,1.435-0.592,1.664-1.169c0.071-0.173,0.114-0.404,0.114-0.65v-4.272h1.263V50.08z"/>
	  <path fill="#FFFFFF" d="M50.233,47.294c0-0.895-0.028-1.617-0.058-2.281h1.119l0.072,1.198h0.028
				  c0.502-0.852,1.334-1.342,2.467-1.342c1.692,0,2.955,1.429,2.955,3.537c0,2.512-1.535,3.753-3.17,3.753
				  c-0.918,0-1.722-0.404-2.138-1.097h-0.028v3.796h-1.248V47.294z M51.481,49.156c0,0.188,0.015,0.361,0.058,0.52
				  c0.229,0.881,0.989,1.487,1.893,1.487c1.334,0,2.109-1.097,2.109-2.699c0-1.386-0.732-2.583-2.065-2.583
				  c-0.861,0-1.679,0.606-1.908,1.559c-0.043,0.159-0.086,0.347-0.086,0.505V49.156z"/>
	  </g>
	<text display="none" transform="matrix(0.9931 0 0 1 22 24)" fill="#FFFFFF" font-family="'WhitneyHTF-SemiBold'" font-size="16.6273">log in</text>
	<text display="none" transform="matrix(0.9931 0 0 1 13.2764 52)" fill="#FFFFFF" font-family="'WhitneyHTF-SemiBold'" font-size="14.4404">sign up</text>
	<g>
		<polyline fill="none" stroke="#FORE" stroke-width="2" stroke-linecap="round" points="7.391,10.622 5.014,8.227 7.391,5.833 		
			"/>
		<line fill="none" stroke="#FORE" stroke-width="2" stroke-linecap="round" x1="5.014" y1="8.227" x2="11.08" y2="8.227"/>
	</g>
</g>
</svg>
